<?xml version="1.0" standalone="no"?>
<!DOCTYPE svg PUBLIC "-//W3C//DTD SVG 20010904//EN"
 "http://www.w3.org/TR/2001/REC-SVG-20010904/DTD/svg10.dtd">
<svg version="1.0" xmlns="http://www.w3.org/2000/svg"
 width="512.000000pt" height="512.000000pt" viewBox="0 0 512.000000 512.000000"
 preserveAspectRatio="xMidYMid meet">
<metadata>
Created by potrace 1.14, written by Peter Selinger 2001-2017
</metadata>
<g transform="translate(0.000000,512.000000) scale(0.100000,-0.100000)"
fill="#000000" stroke="none">
<path d="M1170 5036 c-65 -17 -107 -46 -181 -124 -197 -210 -311 -331 -366
-391 l-63 -66 0 -90 c0 -49 0 -868 -1 -1819 l0 -1730 24 -23 23 -24 1007 0
1007 1 0 -49 c0 -32 6 -56 18 -70 9 -11 94 -56 187 -99 94 -44 219 -102 278
-131 60 -28 110 -51 112 -51 2 0 65 -29 140 -65 75 -36 155 -74 178 -84 23
-11 120 -56 216 -100 96 -45 181 -81 189 -81 12 0 228 109 257 130 6 4 53 30
105 58 183 97 272 148 304 174 69 55 66 12 66 866 l0 771 95 51 c52 28 102 61
110 73 13 18 15 70 15 332 -1 228 -4 314 -13 326 -15 20 -55 40 -139 69 l-68
24 0 454 c0 446 0 455 -21 492 -17 30 -36 45 -83 66 -72 32 -775 356 -936 431
-314 147 -267 136 -545 139 l-240 2 -60 64 c-33 35 -119 127 -191 203 -73 77
-145 154 -160 170 -50 54 -98 84 -157 99 -47 12 -146 15 -559 14 -350 0 -517
-4 -548 -12z m1091 -152 c21 -11 144 -135 334 -339 l37 -40 -456 -3 c-251 -1
-660 -1 -910 0 l-454 3 81 86 c45 47 119 125 165 175 135 144 68 131 665 131
402 0 518 -2 538 -13z m470 -543 c1 -3 3 -91 4 -194 1 -131 6 -195 15 -212 14
-26 57 -40 90 -30 39 12 47 50 46 227 -1 93 2 168 6 168 3 0 39 -15 80 -34 40
-18 152 -70 248 -114 96 -44 211 -97 255 -117 44 -20 107 -49 140 -64 33 -15
179 -83 325 -150 l266 -122 -1 -269 c0 -147 -3 -271 -6 -275 -4 -3 -64 -28
-134 -55 l-127 -49 -42 21 c-22 11 -43 23 -46 25 -3 3 -5 68 -6 146 -1 217
-23 268 -156 367 l-46 35 -4 112 c-3 128 -13 147 -73 147 -59 0 -69 -19 -75
-146 -5 -110 -5 -111 -36 -134 l-31 -24 -18 47 c-25 65 -53 100 -124 153 l-59
45 -4 111 c-3 127 -14 148 -76 148 -59 0 -72 -27 -72 -150 l0 -103 -79 -60
c-56 -43 -84 -72 -98 -103 -24 -50 -44 -118 -36 -118 4 0 4 -2 1 -5 -3 -3 -40
10 -82 29 -64 29 -81 33 -103 25 -50 -19 -52 -29 -53 -250 0 -230 0 -230 71
-264 l44 -20 1 -188 c0 -172 2 -190 20 -206 33 -32 69 -34 101 -7 l28 24 1
146 c0 80 3 148 5 151 5 5 74 -26 299 -132 41 -20 131 -62 200 -94 69 -31 217
-100 330 -153 113 -53 210 -96 215 -96 6 0 69 23 140 50 71 28 130 50 130 50
4 0 -1 -689 -5 -693 -3 -2 -62 -26 -132 -52 l-128 -48 -48 22 -48 23 1 131 c1
218 -21 281 -131 366 -63 48 -73 60 -74 88 0 49 -16 79 -47 92 -57 23 -103
-14 -103 -83 0 -27 -7 -40 -32 -60 l-32 -25 -32 67 c-26 56 -42 76 -101 122
-68 52 -71 57 -75 103 -6 59 -26 81 -74 81 -47 0 -74 -31 -74 -85 0 -36 -4
-42 -72 -93 -40 -31 -83 -70 -95 -88 -24 -36 -55 -133 -46 -142 15 -15 -24 -3
-85 24 -46 22 -73 29 -94 25 -54 -12 -58 -30 -58 -253 0 -112 4 -211 9 -221 5
-9 31 -27 58 -40 l48 -22 0 -197 c0 -108 4 -206 9 -217 22 -47 77 -59 117 -26
23 18 23 23 24 194 l0 175 30 -13 c33 -14 295 -137 474 -221 62 -30 115 -54
117 -54 2 0 54 -24 116 -54 62 -30 157 -75 212 -99 l99 -45 51 18 c28 10 87
32 131 49 44 17 82 31 85 31 11 0 6 -688 -5 -698 -21 -20 -248 -142 -264 -142
-9 1 -32 9 -51 19 l-35 19 -1 155 c-1 150 -2 158 -31 219 -25 52 -42 73 -101
118 -67 52 -80 72 -73 114 7 37 -47 79 -90 71 -36 -7 -53 -31 -59 -81 -4 -37
-12 -52 -36 -70 l-31 -24 -18 47 c-25 65 -45 91 -119 148 -60 47 -64 53 -69
99 -5 58 -34 86 -81 80 -41 -5 -66 -37 -66 -85 0 -36 -4 -42 -75 -95 -83 -62
-122 -118 -131 -188 -4 -26 -8 -46 -10 -46 -2 0 -38 15 -80 34 -81 35 -99 36
-133 5 -18 -17 -21 -31 -21 -104 l0 -85 -47 0 c-61 -1 -1705 -1 -1795 0 l-68
0 0 343 0 342 922 -1 921 -2 24 24 c30 30 30 76 1 104 -18 16 -35 20 -92 20
-39 0 -455 0 -923 1 l-853 0 0 347 0 347 913 0 c739 -1 917 1 939 12 47 23 50
100 5 125 -17 9 -229 13 -932 14 -500 1 -913 2 -917 3 -5 0 -8 185 -8 409 l0
409 873 -1 c479 -1 886 2 902 6 55 14 73 73 36 119 l-19 24 -894 1 -893 1 -3
389 -2 390 1010 0 c555 0 1011 -2 1011 -5z m584 -7 c17 -6 232 -104 475 -216
36 -17 92 -43 125 -58 33 -15 96 -44 140 -65 44 -20 114 -53 155 -72 41 -19
88 -40 104 -48 l29 -13 -31 -16 c-35 -18 -17 -24 -240 80 -52 24 -95 44 -97
44 -2 0 -50 22 -107 49 -57 27 -233 108 -393 181 -159 73 -294 137 -300 143
-11 10 107 3 140 -9z m1205 -2184 l0 -1629 -72 -42 c-40 -23 -76 -44 -80 -46
-5 -2 -8 734 -8 1636 0 1036 4 1641 10 1641 5 0 35 16 67 35 32 19 64 34 71
35 9 0 12 -332 12 -1630z m-1265 1466 c13 -22 18 -53 19 -133 1 -58 -2 -107
-6 -109 -9 -6 -250 105 -259 118 -9 14 -3 85 10 116 6 15 37 46 68 68 l56 42
47 -37 c26 -20 56 -49 65 -65z m420 -200 c13 -22 18 -53 19 -133 0 -58 -1
-106 -3 -108 -2 -2 -26 7 -55 19 -152 69 -206 97 -207 108 -8 87 8 123 78 174
l57 41 47 -36 c26 -20 55 -49 64 -65z m-762 -51 c74 -36 137 -65 140 -65 2 0
70 -31 151 -70 80 -38 168 -79 194 -91 26 -12 117 -54 202 -94 85 -40 191 -90
235 -110 44 -21 89 -37 100 -37 12 0 76 20 143 46 67 25 123 46 124 46 2 0 3
-45 4 -99 l0 -100 -133 -51 -134 -50 -132 61 c-73 34 -170 79 -216 101 -46 22
-111 52 -145 68 -98 45 -203 94 -316 147 -58 27 -162 76 -232 108 l-128 58 0
99 c0 54 2 98 4 98 2 0 65 -29 139 -65z m1802 -627 l25 -11 -2 -241 -3 -240
-32 -19 -33 -19 0 271 c0 165 4 271 10 271 5 0 21 -5 35 -12z m-1458 -338 c14
-28 18 -57 17 -138 -1 -57 -4 -105 -6 -107 -3 -3 -63 23 -135 57 l-130 63 2
51 c4 69 20 95 85 142 l54 39 48 -36 c26 -20 55 -52 65 -71z m357 -132 c68
-51 78 -75 78 -186 0 -139 1 -134 -19 -122 -10 5 -70 34 -134 64 l-115 53 3
54 c2 29 11 64 20 78 17 29 91 89 111 90 7 1 32 -14 56 -31z m-792 -77 c24
-10 88 -40 143 -66 55 -26 262 -123 460 -215 198 -92 390 -182 426 -199 36
-17 74 -31 84 -31 10 0 71 20 136 45 65 25 122 45 126 45 5 0 8 -44 8 -97 l0
-97 -85 -34 c-47 -18 -106 -41 -132 -51 l-47 -19 -203 95 c-112 52 -245 115
-296 139 -52 24 -95 44 -97 44 -1 0 -65 30 -141 66 -77 36 -161 76 -189 89
-27 12 -89 41 -137 64 -48 22 -92 41 -98 41 -6 0 -10 39 -10 100 0 55 2 100 4
100 2 0 24 -9 48 -19z m435 -1068 c16 -24 25 -213 11 -235 -4 -8 -17 -6 -41 6
-20 9 -75 34 -124 57 -48 22 -90 45 -94 50 -9 16 -4 84 10 116 7 15 38 47 69
70 l57 41 48 -41 c27 -22 56 -51 64 -64z m423 -205 c13 -29 20 -227 9 -234 -4
-2 -65 24 -136 57 l-130 61 4 47 c6 70 19 92 81 137 l56 42 52 -42 c29 -22 58
-53 64 -68z m-625 -111 c77 -35 181 -84 230 -107 50 -23 146 -68 215 -100 113
-52 229 -106 364 -170 26 -13 60 -23 75 -23 14 0 79 30 145 67 65 36 119 66
120 66 0 0 1 -43 1 -96 l0 -96 -137 -74 -137 -75 -68 34 c-37 19 -299 141
-580 272 l-513 238 0 98 0 98 73 -33 c39 -18 135 -63 212 -99z"/>
<path d="M854 4145 c-24 -24 -24 -25 -24 -239 0 -209 1 -216 22 -236 32 -29
81 -27 107 6 19 24 21 40 21 184 l0 157 100 0 c66 0 100 -4 101 -11 0 -6 2
-80 2 -164 2 -149 3 -154 26 -173 35 -28 85 -25 110 7 19 24 21 40 21 184 l0
157 100 0 c67 0 100 -3 101 -11 1 -6 2 -79 2 -162 2 -175 10 -194 78 -194 60
0 79 32 79 136 l0 84 28 1 c27 1 508 0 527 -1 6 0 10 -38 10 -91 1 -83 3 -93
24 -110 44 -36 119 -12 122 39 1 9 2 69 3 132 2 125 -8 164 -46 176 -13 4
-169 8 -348 8 l-324 1 -2 49 c-1 34 -8 55 -23 70 -21 21 -28 21 -407 23 l-386
2 -24 -24z"/>
<path d="M1593 3199 c-30 -11 -43 -39 -43 -92 l0 -44 -336 0 -335 -1 -25 -23
c-23 -22 -24 -27 -24 -164 0 -128 2 -143 20 -163 27 -29 80 -29 106 -1 15 17
20 40 22 110 l4 89 46 1 c193 3 505 0 509 -5 3 -3 6 -43 7 -90 2 -101 17 -126
77 -126 29 0 42 6 58 26 19 24 21 40 21 184 l0 157 100 0 c55 0 100 -3 101 -6
0 -3 1 -77 2 -163 2 -145 4 -159 23 -178 31 -32 82 -30 111 4 22 26 23 34 23
186 l0 158 88 0 c48 0 94 -2 102 -4 13 -3 15 -29 14 -155 0 -88 4 -160 11
-172 13 -27 54 -42 89 -33 45 11 51 43 50 266 l0 203 -26 22 c-26 23 -27 23
-400 23 -205 -1 -383 -4 -395 -9z"/>
<path d="M899 2220 c-63 -13 -64 -16 -67 -177 -3 -139 -2 -149 18 -170 30 -33
82 -31 109 3 17 22 21 41 21 110 0 73 2 84 18 85 18 0 507 0 530 -1 8 0 12
-25 12 -87 1 -90 8 -111 45 -130 28 -14 82 2 96 29 7 12 12 59 13 105 l0 83
206 1 c113 0 228 1 255 1 110 0 100 8 98 -81 -1 -44 4 -89 11 -102 23 -47 104
-51 127 -7 16 31 18 261 2 299 -7 17 -22 31 -38 35 -30 8 -1419 11 -1456 4z"/>
<path d="M935 1462 c-23 -2 -49 -12 -62 -24 -22 -21 -23 -28 -23 -203 0 -169
1 -183 20 -203 27 -29 80 -29 106 -1 16 18 19 40 22 150 3 89 7 129 15 130 52
3 180 0 184 -5 4 -3 7 -62 7 -130 1 -145 11 -166 77 -166 50 0 79 35 79 97 l0
43 282 -2 282 -3 1 -47 c1 -60 25 -88 75 -88 25 0 43 7 58 23 20 21 22 34 22
150 l0 127 33 1 c17 0 62 1 100 2 37 1 67 0 68 -3 0 -3 2 -63 2 -133 2 -122 3
-130 26 -148 46 -38 120 -12 122 44 1 12 2 90 3 172 2 162 -6 198 -46 211 -13
4 -110 7 -216 7 -187 -1 -194 -1 -218 -24 -20 -19 -24 -32 -24 -81 l0 -58
-288 0 -289 0 1 38 c0 61 -12 100 -35 113 -21 11 -287 19 -384 11z"/>
</g>
</svg>
